<svg viewBox="0 0 103.936 23.2707" fill="none" xmlns="http://www.w3.org/2000/svg">
<g id="Group 1244833067">
<path id="Vector" d="M43.3529 21.7929L42.1613 18.0994H41.428L40.2364 21.7929L39.0448 18.0994H38.1283L39.7782 23.0861H40.5115L41.7943 19.5771L42.9859 23.0861H43.7192L45.369 18.0994H44.4526L43.3529 21.7929Z" fill="#111111"/>
<path id="Vector_2" d="M1.00913 20.2234H25.9389V20.9622H1.00913V20.2234Z" fill="#111111"/>
<path id="Vector_3" d="M31.8961 1.4777H33.5459V12.4665H31.8961V1.4777Z" fill="#111111"/>
<path id="Vector_4" d="M39.7781 12.4665H41.4279V7.84952H47.1107V6.27991H41.4279V2.95542H47.7521V1.4777H39.7781V12.4665Z" fill="#111111"/>
<path id="Vector_5" d="M6.23369 12.651C9.71649 12.651 12.5579 9.7882 12.5579 6.27918C12.5579 2.8628 9.71649 1.29244 7.60842 1.29244C3.48423 1.29244 3.20913 5.35579 3.20913 5.35579H3.30108C3.30108 5.35579 4.03442 2.40111 6.87582 2.40111C9.16704 2.40111 10.9088 3.97071 10.9088 6.18729C10.9088 8.77293 8.80075 10.8969 6.23443 10.8969C3.76007 10.8969 1.46885 9.05009 1.46885 5.7256C1.46885 3.13997 2.84358 1.01603 5.22675 0.0926408V0C2.20219 0.461693 0.00217107 3.13997 0.00217107 6.27918C-0.0897767 9.7882 2.75089 12.651 6.23369 12.651Z" fill="#111111"/>
<path id="Vector_6" d="M33.7291 20.2233C32.8126 20.0388 32.5375 19.8543 32.5375 19.4845C32.5375 19.1147 32.8126 18.9301 33.3621 18.9301C33.8203 18.9301 34.2786 19.1147 34.6448 19.3918L35.1031 18.7456C34.6448 18.3766 34.0035 18.0994 33.3613 18.0994C32.3529 18.0994 31.7115 18.6537 31.7115 19.5771C31.7115 20.5005 32.2617 20.7777 33.3613 21.0548C34.2778 21.2394 34.461 21.4239 34.461 21.7937C34.461 22.1635 34.0947 22.4399 33.6364 22.4399C32.995 22.4399 32.5368 22.1627 32.0785 21.7937L31.5283 22.4399C32.0785 22.9942 32.8119 23.2707 33.5445 23.2707C34.5529 23.2707 35.2855 22.7163 35.2855 21.7929C35.2855 20.7769 34.7353 20.4079 33.7276 20.2233H33.7291Z" fill="#111111"/>
<path id="Vector_7" d="M26.7635 12.4665L23.4638 8.03404C25.1136 7.57235 26.2133 6.3718 26.2133 4.80219C26.2133 2.77089 24.5634 1.38581 22.1803 1.38581H17.4139V12.3746H19.0638V8.31121H21.722L24.7466 12.3746L26.7627 12.4672L26.7635 12.4665ZM19.0645 6.83349V2.95541H22.0891C23.6469 2.95541 24.5634 3.60163 24.5634 4.80219C24.5634 6.00274 23.555 6.7416 22.0891 6.7416H19.0645V6.83349Z" fill="#111111"/>
<path id="Vector_8" d="M49.4932 20.9622H51.9676V20.1315H49.4932V18.9309H52.2427V18.1002H48.6679V22.9943H52.2427V22.2554H49.4932V20.9622Z" fill="#111111"/>
<path id="Vector_9" d="M68.649 1.38507L63.6995 12.4665H65.4406L66.7234 9.60367H72.0391L73.2307 12.4665H75.0637L70.1142 1.38507H68.6475H68.649ZM67.2743 8.1267L69.2904 3.41713L71.3065 8.1267H67.2743Z" fill="#111111"/>
<path id="Vector_10" d="M80.8392 4.3405L84.322 9.51177L84.5051 9.78894L84.6883 9.51177L88.0791 4.3405V12.4665H89.729V1.4777H88.1711L84.5051 7.01802L80.8392 1.4777H79.2813V12.4665H80.8392V4.3405Z" fill="#111111"/>
<path id="Vector_11" d="M80.8391 20.2234H103.936V20.9622H80.8391V20.2234Z" fill="#111111"/>
<path id="Vector_12" d="M97.4279 10.8968V7.665H103.111V6.09539H97.4279V2.95542H103.843V1.4777H95.778V12.4665H103.843V10.8968H97.4279Z" fill="#111111"/>
<path id="Vector_13" d="M73.9649 21.5158L71.3067 18.0994H70.4821V22.9935H71.3986V19.5771L74.0569 22.9935H74.7902V18.0994H73.9657L73.9649 21.5158Z" fill="#111111"/>
<path id="Vector_14" d="M54.5347 1.4777H52.9768V12.4665H60.4926V10.8968H54.5354L54.5347 1.4777Z" fill="#111111"/>
<path id="Vector_15" d="M64.3417 20.9622H66.816V20.1315H64.3417V18.9309H67.0911V18.1002H63.5164V22.9943H67.1823V22.2554H64.3409L64.3417 20.9622Z" fill="#111111"/>
<path id="Vector_16" d="M57.4674 18.0994H55.6344V22.9935H57.4674C59.0252 22.9935 60.0337 21.8856 60.0337 20.5005C60.1256 19.2073 59.0252 18.0994 57.4674 18.0994ZM57.4674 22.2546H56.4589V18.9301H57.4674C58.4758 18.9301 59.1172 19.669 59.1172 20.5924C59.2091 21.5158 58.4758 22.2546 57.4674 22.2546Z" fill="#111111"/>
</g>
</svg>
