<svg viewBox="0 0 26 26" fill="none" xmlns="http://www.w3.org/2000/svg">
<g id="Logo/Messenger" clip-path="url(#clip0_0_528)">
<path id="Vector" d="M25.9482 12.6116C25.9482 19.8284 20.294 25.1713 13 25.1713C11.6902 25.1713 10.4331 24.9983 9.25175 24.6736C9.02231 24.6099 8.77837 24.628 8.56032 24.7238L5.99036 25.8586C5.31809 26.1554 4.55932 25.6773 4.53705 24.9429L4.46661 22.6392C4.45781 22.3553 4.3304 22.0902 4.11857 21.9011C1.59884 19.6481 0.0517928 16.3867 0.0517928 12.6116C0.0517928 5.39474 5.70602 0.0517928 13 0.0517928C20.294 0.0517928 25.9482 5.39474 25.9482 12.6116Z" fill="#0866FF"/>
<path id="Vector_2" d="M16.5157 16.2272L21.0237 9.26004C21.4769 8.5598 20.6374 7.74458 19.9506 8.21849L15.2447 11.4643C15.0862 11.5736 14.877 11.5767 14.7154 11.4721L10.5383 8.76956C10.1845 8.54064 9.71271 8.64215 9.4843 8.99538L4.97573 15.9625C4.52255 16.6628 5.36211 17.478 6.04888 17.0041L10.7558 13.7577C10.9143 13.6484 11.1235 13.6453 11.2851 13.75L15.4612 16.452C15.8149 16.6809 16.2868 16.5794 16.5157 16.2262V16.2272Z" fill="white"/>
</g>
<defs>
<clipPath id="clip0_0_528">
<rect width="26" height="26" fill="white"/>
</clipPath>
</defs>
</svg>
