<svg viewBox="0 0 26 25.6078" fill="none" xmlns="http://www.w3.org/2000/svg">
<g id="PRIMARY - GHOST">
<path id="Vector" d="M24.1553 18.9582C20.129 17.0092 19.4873 13.9999 19.4588 13.7767C19.4242 13.5064 19.385 13.2938 19.6833 13.0188C19.9709 12.7531 21.247 11.9632 21.6011 11.7161C22.1864 11.3069 22.4441 10.8984 22.2541 10.3962C22.1213 10.0487 21.7977 9.91788 21.457 9.91788C21.3495 9.9182 21.2423 9.93023 21.1374 9.95375C20.4944 10.0932 19.87 10.4154 19.5086 10.5025C19.4652 10.5136 19.4206 10.5197 19.3757 10.5204C19.1831 10.5204 19.11 10.4347 19.1286 10.2029C19.1738 9.50004 19.2695 8.12827 19.1585 6.84686C19.0064 5.08383 18.4378 4.21028 17.7635 3.43771C17.4373 3.06305 15.9228 1.45348 12.9999 1.45348C10.077 1.45348 8.5644 3.06305 8.24023 3.43306C7.56398 4.20563 6.99601 5.07918 6.84521 6.84221C6.73428 8.12363 6.83392 9.49472 6.87511 10.1982C6.88839 10.4188 6.82064 10.5157 6.62799 10.5157C6.58316 10.515 6.53857 10.509 6.49513 10.4978C6.13442 10.4108 5.50999 10.0886 4.86695 9.9491C4.76206 9.92558 4.65492 9.91355 4.54743 9.91323C4.20532 9.91323 3.88314 10.0461 3.75028 10.3915C3.56029 10.8937 3.81671 11.3023 4.40394 11.7115C4.75801 11.9586 6.03411 12.7478 6.32175 13.0141C6.61935 13.2892 6.58083 13.5017 6.54628 13.7721C6.51772 13.9986 5.87535 17.0079 1.84974 18.9536C1.61392 19.0678 1.21269 19.3096 1.92016 19.7002C3.03085 20.314 3.77021 20.2483 4.34482 20.6183C4.83241 20.9325 4.54411 21.6101 4.89884 21.8545C5.33462 22.1554 6.62268 21.8333 8.28673 22.3826C9.68174 22.8423 10.5294 24.141 13.0032 24.141C15.477 24.141 16.3492 22.8363 17.7197 22.3826C19.3804 21.8333 20.6711 22.1554 21.1075 21.8545C21.4616 21.6101 21.174 20.9325 21.6616 20.6183C22.2362 20.2483 22.9749 20.314 24.0862 19.7002C24.7924 19.3143 24.3911 19.0725 24.1553 18.9582Z" fill="white"/>
<path id="Vector_2" d="M25.907 18.729C25.7264 18.2375 25.3823 17.9744 24.9903 17.7565C24.9166 17.7133 24.8488 17.6788 24.791 17.6522C24.6741 17.5918 24.5546 17.5333 24.4356 17.4715C23.214 16.8238 22.2601 16.0068 21.5985 15.0382C21.4106 14.7656 21.2476 14.4765 21.1115 14.1746C21.0551 14.0132 21.0577 13.9216 21.0982 13.8379C21.1384 13.7734 21.1916 13.7179 21.2544 13.6751C21.4643 13.5363 21.6808 13.3954 21.8276 13.3004C22.0894 13.131 22.2966 12.9969 22.4301 12.9019C22.9317 12.5511 23.2824 12.1785 23.5016 11.7619C23.6546 11.4742 23.7438 11.1569 23.7632 10.8315C23.7825 10.5062 23.7316 10.1806 23.6139 9.87668C23.2818 9.00247 22.4561 8.45975 21.4556 8.45975C21.2446 8.45955 21.0342 8.48182 20.8279 8.52618C20.7727 8.53814 20.7176 8.55076 20.6638 8.56471C20.6731 7.96684 20.6598 7.33577 20.6067 6.71466C20.418 4.53113 19.6534 3.38656 18.8563 2.47382C18.3458 1.90186 17.7445 1.41797 17.0766 1.04161C15.867 0.350746 14.4952 0 12.9999 0C11.5045 0 10.1394 0.350746 8.92843 1.04161C8.2589 1.41808 7.65641 1.90295 7.14547 2.47648C6.34832 3.38921 5.58372 4.53578 5.39506 6.71731C5.34192 7.33843 5.32863 7.97282 5.33727 8.56736C5.28346 8.55341 5.22899 8.54079 5.17385 8.52884C4.96755 8.48448 4.75712 8.46221 4.5461 8.46241C3.54501 8.46241 2.71797 9.00513 2.38715 9.87934C2.26891 10.1833 2.21749 10.5093 2.2364 10.8349C2.25532 11.1606 2.34411 11.4783 2.49676 11.7666C2.71664 12.1831 3.06739 12.5558 3.56893 12.9065C3.70178 12.9995 3.90971 13.1337 4.17144 13.3051C4.31293 13.3968 4.51953 13.5309 4.72214 13.6651C4.79302 13.711 4.85327 13.7714 4.89884 13.8425C4.94135 13.9295 4.94268 14.0232 4.87957 14.1959C4.74535 14.4914 4.58506 14.7744 4.40062 15.0415C3.7536 15.9882 2.82758 16.7906 1.64514 17.433C1.01871 17.7651 0.367707 17.987 0.0926907 18.7343C-0.114568 19.2983 0.0209472 19.94 0.54773 20.4808C0.741064 20.6826 0.965302 20.8523 1.21202 20.9836C1.72538 21.2658 2.27126 21.4841 2.83754 21.634C2.9544 21.6641 3.06535 21.7137 3.1657 21.7808C3.35768 21.9488 3.33045 22.2019 3.5862 22.5726C3.71458 22.7642 3.87771 22.93 4.06715 23.0615C4.60389 23.4322 5.20707 23.4555 5.84612 23.48C6.42339 23.502 7.07771 23.5272 7.82504 23.7737C8.1346 23.876 8.45612 24.0739 8.82878 24.3051C9.72359 24.8551 10.9485 25.6078 12.9985 25.6078C15.0485 25.6078 16.2821 24.8511 17.1836 24.2991C17.5536 24.0719 17.8731 23.876 18.174 23.7763C18.9214 23.5292 19.5757 23.5046 20.153 23.4827C20.792 23.4581 21.3952 23.4349 21.9319 23.0642C22.1563 22.9077 22.3432 22.7036 22.4793 22.4663C22.6633 22.1534 22.6587 21.9349 22.8314 21.7821C22.9255 21.7183 23.0297 21.6707 23.1396 21.6413C23.7136 21.491 24.2669 21.2706 24.7871 20.985C25.0492 20.8443 25.2851 20.6596 25.4846 20.4389L25.4912 20.4309C25.9854 19.9022 26.1097 19.2791 25.907 18.729ZM24.0849 19.7082C22.9735 20.322 22.2348 20.2562 21.6602 20.6262C21.172 20.9405 21.4609 21.618 21.1062 21.8625C20.6704 22.1634 19.3824 21.8412 17.7183 22.3906C16.3459 22.8443 15.4704 24.149 13.0019 24.149C10.5334 24.149 9.67841 22.847 8.2834 22.3873C6.62267 21.8379 5.33196 22.1601 4.89552 21.8592C4.54145 21.6147 4.82909 20.9371 4.3415 20.6229C3.76622 20.2529 3.02753 20.3187 1.91683 19.7082C1.20936 19.3176 1.6106 19.0758 1.84642 18.9615C5.87202 17.0125 6.51439 14.0033 6.54296 13.7801C6.5775 13.5097 6.61603 13.2971 6.31843 13.0221C6.03079 12.7564 4.75469 11.9665 4.40062 11.7194C3.81471 11.3102 3.55697 10.9017 3.74696 10.3995C3.87981 10.0521 4.20399 9.92119 4.54411 9.92119C4.6516 9.92152 4.75874 9.93355 4.86363 9.95706C5.50666 10.0966 6.1311 10.4187 6.49181 10.5058C6.53524 10.5169 6.57983 10.5229 6.62467 10.5237C6.81731 10.5237 6.88507 10.4267 6.87178 10.2062C6.8306 9.50269 6.73095 8.13159 6.84189 6.85017C6.99401 5.08714 7.56198 4.2136 8.2369 3.44103C8.56108 3.06969 10.0843 1.46011 12.9972 1.46011C15.9101 1.46011 17.4373 3.06305 17.7615 3.43306C18.4371 4.20563 19.0057 5.07917 19.1565 6.8422C19.2675 8.12362 19.1718 9.49538 19.1266 10.1982C19.1114 10.43 19.1811 10.5157 19.3737 10.5157C19.4186 10.515 19.4632 10.509 19.5066 10.4978C19.868 10.4108 20.4924 10.0886 21.1354 9.94909C21.2403 9.92557 21.3475 9.91355 21.455 9.91322C21.7971 9.91322 22.1193 10.0461 22.2521 10.3915C22.4421 10.8937 22.1857 11.3023 21.5991 11.7115C21.2451 11.9586 19.9689 12.7477 19.6813 13.0141C19.383 13.2891 19.4222 13.5017 19.4568 13.7721C19.4853 13.9986 20.1271 17.0078 24.1533 18.9536C24.3911 19.0725 24.7924 19.3143 24.0849 19.7082Z" fill="black"/>
</g>
</svg>
