<svg width="27" height="27" viewBox="0 0 27 27" fill="none" xmlns="http://www.w3.org/2000/svg">
<path d="M13.3333 0C20.6971 0 26.6667 5.96953 26.6667 13.3333C26.6667 20.6971 20.6971 26.6667 13.3333 26.6667C5.96953 26.6667 0 20.6971 0 13.3333C0 5.96953 5.96953 0 13.3333 0ZM13.5463 18.6667C10.8324 18.6667 8.38909 19.8249 6.68368 21.6741C8.50719 23.1299 10.8187 24 13.3333 24C15.9593 24 18.3636 23.0511 20.2221 21.4775C18.5275 19.7432 16.1625 18.6667 13.5463 18.6667ZM13.3333 2.66667C7.44229 2.66667 2.66667 7.44229 2.66667 13.3333C2.66667 15.7475 3.46867 17.9743 4.82076 19.7619C7.00852 17.4455 10.1086 16 13.5463 16C16.8588 16 19.8577 17.3421 22.0291 19.5123C23.2701 17.7689 24 15.6364 24 13.3333C24 7.44229 19.2244 2.66667 13.3333 2.66667ZM13.3333 4C16.2788 4 18.6667 6.38781 18.6667 9.33333C18.6667 12.2788 16.2788 14.6667 13.3333 14.6667C10.3878 14.6667 8 12.2788 8 9.33333C8 6.38781 10.3878 4 13.3333 4ZM13.3333 6.66667C11.8605 6.66667 10.6667 7.86057 10.6667 9.33333C10.6667 10.8061 11.8605 12 13.3333 12C14.8061 12 16 10.8061 16 9.33333C16 7.86057 14.8061 6.66667 13.3333 6.66667Z" fill="white"/>
</svg>
