<svg width="17" height="15" viewBox="0 0 17 15" fill="none" xmlns="http://www.w3.org/2000/svg">
<path d="M5.83333 0H10.8333L12.5 1.66667H15.8333C16.2936 1.66667 16.6667 2.03977 16.6667 2.5V14.1667C16.6667 14.6269 16.2936 15 15.8333 15H0.833333C0.3731 15 0 14.6269 0 14.1667V2.5C0 2.03977 0.3731 1.66667 0.833333 1.66667H4.16667L5.83333 0ZM8.33333 13.3333C11.0947 13.3333 13.3333 11.0947 13.3333 8.33333C13.3333 5.57191 11.0947 3.33333 8.33333 3.33333C5.57191 3.33333 3.33333 5.57191 3.33333 8.33333C3.33333 11.0947 5.57191 13.3333 8.33333 13.3333ZM8.33333 11.6667C6.49238 11.6667 5 10.1742 5 8.33333C5 6.49242 6.49238 5 8.33333 5C10.1742 5 11.6667 6.49242 11.6667 8.33333C11.6667 10.1742 10.1742 11.6667 8.33333 11.6667Z" fill="white"/>
</svg>
