<svg width="27" height="27" viewBox="0 0 27 27" fill="none" xmlns="http://www.w3.org/2000/svg">
<path d="M7.05489 25.0989L0 26.6667L1.56775 19.6117C0.567253 17.7408 0 15.6033 0 13.3333C0 5.96953 5.96953 0 13.3333 0C20.6971 0 26.6667 5.96953 26.6667 13.3333C26.6667 20.6971 20.6971 26.6667 13.3333 26.6667C11.0633 26.6667 8.92587 26.0995 7.05489 25.0989ZM7.441 22.2813L8.31237 22.7473C9.84331 23.566 11.554 24 13.3333 24C19.2244 24 24 19.2244 24 13.3333C24 7.44229 19.2244 2.66667 13.3333 2.66667C7.44229 2.66667 2.66667 7.44229 2.66667 13.3333C2.66667 15.1127 3.10065 16.8233 3.91932 18.3543L4.38528 19.2256L3.51221 23.1544L7.441 22.2813Z" fill="white"/>
</svg>
