<svg viewBox="0 0 24 23.9964" fill="none" xmlns="http://www.w3.org/2000/svg">
<g id="Frame 1707483223">
<path id="Vector" d="M11.9331 21.9967C17.4846 21.9967 22 17.4617 22 11.9298C22 6.53469 17.465 4.05217 14.1224 4.05217C7.55449 4.05217 7.1049 10.4833 7.1049 10.4833H7.24173C7.24173 10.4833 8.41457 5.81144 12.93 5.81144C16.5854 5.81144 19.3611 8.29395 19.3611 11.7929C19.3611 15.8783 15.999 19.2405 11.9136 19.2405C7.98453 19.2209 4.34872 16.3084 4.34872 11.0501C4.34872 6.96473 6.53802 3.60258 10.3302 2.13653V1.9997C5.50201 2.72295 2.00303 6.96473 2.00303 11.9298C1.8662 17.4812 6.38164 21.9967 11.9331 21.9967Z" fill="black"/>
</g>
</svg>
