<svg width="26" height="26" viewBox="0 0 26 26" fill="none" xmlns="http://www.w3.org/2000/svg">
<path d="M3.29813 15.594C2.43008 17.7039 2.42999 20.0871 3.29813 22.1971C5.40813 23.0652 7.79128 23.0651 9.90122 22.1971L7.77109 20.067C7.0028 20.22 6.20613 20.2223 5.42755 20.0676C5.27293 19.2891 5.2752 18.4924 5.42821 17.7241L3.29813 15.594ZM5.84098 8.34051L1.81688 8.59337L-9.10157e-06 10.4103L15.0849 25.4952L16.9018 23.6783L17.1547 19.6542L22.6274 14.1815C25.9115 10.8974 26.3441 5.74241 24.0839 1.41132C19.7528 -0.848938 14.5978 -0.416274 11.3137 2.86777L5.84098 8.34051ZM4.46023 11.0993L7.01402 10.9387L13.1993 4.75338C15.3846 2.5681 18.8574 2.05726 22.0815 3.41371C23.438 6.63782 22.9271 10.1106 20.7418 12.2959L14.5565 18.4812L14.396 21.035L4.46023 11.0993ZM15.0849 10.4103C16.1264 11.4517 17.8148 11.4516 18.8562 10.4102C19.8976 9.36884 19.8976 7.68043 18.8562 6.639C17.8148 5.59758 16.1264 5.5976 15.085 6.639C14.0436 7.68035 14.0435 9.36883 15.0849 10.4103Z" fill="white"/>
</svg>
