<svg width="28" height="28" viewBox="0 0 28 28" fill="none" xmlns="http://www.w3.org/2000/svg">
<path d="M21.3747 19.4891L27.0849 25.1993L25.1993 27.0849L19.4891 21.3747C17.4359 23.0173 14.832 24 12 24C5.376 24 0 18.624 0 12C0 5.376 5.376 0 12 0C18.624 0 24 5.376 24 12C24 14.832 23.0173 17.4359 21.3747 19.4891ZM18.6996 18.4997C20.33 16.8195 21.3333 14.5275 21.3333 12C21.3333 6.84333 17.1567 2.66667 12 2.66667C6.84333 2.66667 2.66667 6.84333 2.66667 12C2.66667 17.1567 6.84333 21.3333 12 21.3333C14.5275 21.3333 16.8195 20.33 18.4997 18.6996L18.6996 18.4997Z" fill="white"/>
</svg>
